# xmcd CD database file
#
# Track frame offsets:
#	150
#	2996
#	18149
#	36042
#	47259
#	63776
#	75916
#	89114
#	92647
#	111856
#	126004
#	148526
#	161236
#	176625
#	187770
#	225595
#	237863
#	247212
#	257757
#
# Disc length: 3656 seconds
#
# Revision: 0
# Processed by: cddbd v1.4PL0 Copyright (c) Steve Scherf et al.
# Submitted via: CDex 1.50
#
DISCID=eb0e4613
DTITLE=Slipknot - Slipknot
DYEAR=1900
DGENRE=New Age
TTITLE0=742617000027
TTITLE1=sic
TTITLE2=eyeless
TTITLE3=wait and bleed
TTITLE4=surfacing
TTITLE5=spit it out
TTITLE6=tattered and torn
TTITLE7=frail limb nursery
TTITLE8=purity
TTITLE9=liberate
TTITLE10=prosthetics
TTITLE11=no life
TTITLE12=diluted
TTITLE13=only one
TTITLE14=scissors
TTITLE15=me inside
TTITLE16=get this
TTITLE17=interloper
TTITLE18=despise
EXTD=
EXTT0=
EXTT1=
EXTT2=
EXTT3=
EXTT4=
EXTT5=
EXTT6=
EXTT7=
EXTT8=
EXTT9=
EXTT10=
EXTT11=
EXTT12=
EXTT13=
EXTT14=
EXTT15=
EXTT16=
EXTT17=
EXTT18=
PLAYORDER=
